<?xml version="1.0" encoding="UTF-8"?>
<!-- Do not edit this file with editors other than draw.io -->
<!DOCTYPE svg PUBLIC "-//W3C//DTD SVG 1.1//EN" "http://www.w3.org/Graphics/SVG/1.1/DTD/svg11.dtd">
<svg xmlns="http://www.w3.org/2000/svg" style="background: transparent; background-color: transparent; color-scheme: light dark;" xmlns:xlink="http://www.w3.org/1999/xlink" version="1.1" width="1052px" height="242px" viewBox="0 0 1052 242" id="ge-svg-xv5JpEPVqUkL0Jm7CT_2" content="&lt;mxfile host=&quot;app.diagrams.net&quot;&gt;&#10;  &lt;diagram name=&quot;Side-1&quot; id=&quot;bQiGhlr-K37MnaIpWbxZ&quot;&gt;&#10;    &lt;mxGraphModel dx=&quot;774&quot; dy=&quot;417&quot; grid=&quot;1&quot; gridSize=&quot;10&quot; guides=&quot;1&quot; tooltips=&quot;1&quot; connect=&quot;1&quot; arrows=&quot;1&quot; fold=&quot;1&quot; page=&quot;1&quot; pageScale=&quot;1&quot; pageWidth=&quot;827&quot; pageHeight=&quot;1169&quot; math=&quot;0&quot; shadow=&quot;0&quot;&gt;&#10;      &lt;root&gt;&#10;        &lt;mxCell id=&quot;0&quot; /&gt;&#10;        &lt;mxCell id=&quot;1&quot; parent=&quot;0&quot; /&gt;&#10;        &lt;mxCell id=&quot;nG4IH-adCrYojkNgLSkZ-1&quot; parent=&quot;1&quot; style=&quot;rounded=1;whiteSpace=wrap;html=1;&quot; value=&quot;Start&quot; vertex=&quot;1&quot;&gt;&#10;          &lt;mxGeometry height=&quot;40&quot; width=&quot;60&quot; y=&quot;190&quot; as=&quot;geometry&quot; /&gt;&#10;        &lt;/mxCell&gt;&#10;        &lt;mxCell id=&quot;nG4IH-adCrYojkNgLSkZ-2&quot; edge=&quot;1&quot; parent=&quot;1&quot; style=&quot;endArrow=classic;html=1;rounded=0;&quot; value=&quot;&quot;&gt;&#10;          &lt;mxGeometry height=&quot;50&quot; relative=&quot;1&quot; width=&quot;50&quot; as=&quot;geometry&quot;&gt;&#10;            &lt;mxPoint x=&quot;60&quot; y=&quot;210&quot; as=&quot;sourcePoint&quot; /&gt;&#10;            &lt;mxPoint x=&quot;110&quot; y=&quot;210&quot; as=&quot;targetPoint&quot; /&gt;&#10;          &lt;/mxGeometry&gt;&#10;        &lt;/mxCell&gt;&#10;        &lt;mxCell id=&quot;nG4IH-adCrYojkNgLSkZ-4&quot; edge=&quot;1&quot; parent=&quot;1&quot; style=&quot;endArrow=classic;html=1;rounded=0;&quot; value=&quot;&quot;&gt;&#10;          &lt;mxGeometry height=&quot;50&quot; relative=&quot;1&quot; width=&quot;50&quot; as=&quot;geometry&quot;&gt;&#10;            &lt;mxPoint x=&quot;230&quot; y=&quot;210&quot; as=&quot;sourcePoint&quot; /&gt;&#10;            &lt;mxPoint x=&quot;280&quot; y=&quot;210&quot; as=&quot;targetPoint&quot; /&gt;&#10;          &lt;/mxGeometry&gt;&#10;        &lt;/mxCell&gt;&#10;        &lt;mxCell id=&quot;nG4IH-adCrYojkNgLSkZ-5&quot; parent=&quot;1&quot; style=&quot;shape=parallelogram;perimeter=parallelogramPerimeter;whiteSpace=wrap;html=1;shapeInside=1;fixedSize=1;&quot; value=&quot;Input health, spell_shield_is_active&quot; vertex=&quot;1&quot;&gt;&#10;          &lt;mxGeometry height=&quot;70&quot; width=&quot;140&quot; x=&quot;110&quot; y=&quot;180&quot; as=&quot;geometry&quot; /&gt;&#10;        &lt;/mxCell&gt;&#10;        &lt;mxCell id=&quot;nG4IH-adCrYojkNgLSkZ-7&quot; parent=&quot;1&quot; style=&quot;rounded=0;whiteSpace=wrap;html=1;&quot; value=&quot;attackstrength&amp;lt;br&amp;gt;=random(1,10)&quot; vertex=&quot;1&quot;&gt;&#10;          &lt;mxGeometry height=&quot;60&quot; width=&quot;120&quot; x=&quot;280&quot; y=&quot;185&quot; as=&quot;geometry&quot; /&gt;&#10;        &lt;/mxCell&gt;&#10;        &lt;mxCell id=&quot;nG4IH-adCrYojkNgLSkZ-8&quot; edge=&quot;1&quot; parent=&quot;1&quot; style=&quot;endArrow=classic;html=1;rounded=0;&quot; value=&quot;&quot;&gt;&#10;          &lt;mxGeometry height=&quot;50&quot; relative=&quot;1&quot; width=&quot;50&quot; as=&quot;geometry&quot;&gt;&#10;            &lt;mxPoint x=&quot;400&quot; y=&quot;220&quot; as=&quot;sourcePoint&quot; /&gt;&#10;            &lt;mxPoint x=&quot;450&quot; y=&quot;220&quot; as=&quot;targetPoint&quot; /&gt;&#10;          &lt;/mxGeometry&gt;&#10;        &lt;/mxCell&gt;&#10;        &lt;mxCell id=&quot;nG4IH-adCrYojkNgLSkZ-9&quot; parent=&quot;1&quot; style=&quot;rhombus;whiteSpace=wrap;html=1;shapeInside=1;&quot; value=&quot;&amp;lt;div&amp;gt;&amp;lt;br&amp;gt;&amp;lt;/div&amp;gt;&amp;lt;div&amp;gt;&amp;amp;nbsp;spell_shield_is_active?&amp;lt;/div&amp;gt;&quot; vertex=&quot;1&quot;&gt;&#10;          &lt;mxGeometry height=&quot;160&quot; width=&quot;160&quot; x=&quot;450&quot; y=&quot;140&quot; as=&quot;geometry&quot; /&gt;&#10;        &lt;/mxCell&gt;&#10;        &lt;mxCell id=&quot;nG4IH-adCrYojkNgLSkZ-10&quot; edge=&quot;1&quot; parent=&quot;1&quot; style=&quot;endArrow=classic;html=1;rounded=0;&quot; value=&quot;&quot;&gt;&#10;          &lt;mxGeometry height=&quot;50&quot; relative=&quot;1&quot; width=&quot;50&quot; as=&quot;geometry&quot;&gt;&#10;            &lt;mxPoint x=&quot;600&quot; y=&quot;200&quot; as=&quot;sourcePoint&quot; /&gt;&#10;            &lt;mxPoint x=&quot;640&quot; y=&quot;170&quot; as=&quot;targetPoint&quot; /&gt;&#10;          &lt;/mxGeometry&gt;&#10;        &lt;/mxCell&gt;&#10;        &lt;mxCell id=&quot;nG4IH-adCrYojkNgLSkZ-11&quot; edge=&quot;1&quot; parent=&quot;1&quot; style=&quot;endArrow=classic;html=1;rounded=0;&quot; value=&quot;&quot;&gt;&#10;          &lt;mxGeometry height=&quot;50&quot; relative=&quot;1&quot; width=&quot;50&quot; as=&quot;geometry&quot;&gt;&#10;            &lt;mxPoint x=&quot;590&quot; y=&quot;260&quot; as=&quot;sourcePoint&quot; /&gt;&#10;            &lt;mxPoint x=&quot;640&quot; y=&quot;300&quot; as=&quot;targetPoint&quot; /&gt;&#10;          &lt;/mxGeometry&gt;&#10;        &lt;/mxCell&gt;&#10;        &lt;mxCell id=&quot;nG4IH-adCrYojkNgLSkZ-12&quot; parent=&quot;1&quot; style=&quot;rounded=0;whiteSpace=wrap;html=1;&quot; value=&quot;health=health-attackstrength/2&quot; vertex=&quot;1&quot;&gt;&#10;          &lt;mxGeometry height=&quot;60&quot; width=&quot;120&quot; x=&quot;640&quot; y=&quot;100&quot; as=&quot;geometry&quot; /&gt;&#10;        &lt;/mxCell&gt;&#10;        &lt;mxCell id=&quot;nG4IH-adCrYojkNgLSkZ-13&quot; parent=&quot;1&quot; style=&quot;rounded=0;whiteSpace=wrap;html=1;&quot; value=&quot;health=health-attackstrength&quot; vertex=&quot;1&quot;&gt;&#10;          &lt;mxGeometry height=&quot;60&quot; width=&quot;120&quot; x=&quot;650&quot; y=&quot;280&quot; as=&quot;geometry&quot; /&gt;&#10;        &lt;/mxCell&gt;&#10;        &lt;mxCell id=&quot;nG4IH-adCrYojkNgLSkZ-14&quot; parent=&quot;1&quot; style=&quot;shape=stencil(7VjLbhsxDPwaXwlRlCjpnKb/ESBOYzSNA8fp4+/LhaH1iruZoLcCLeDD2uasRHI4pLSTm9fHu5f9LobX8+n4df/jcH9+3MmnXYyH58f96XC2p53c7uTm4Xjafzkd357vL99f7ibL6enb8fv0hp8XHBcKZULF8OvyS6Ppm30+X+yfDs9L+0QlD/YsxPl9QIyU0wCI9ooEAIW0DgBhquV9gFRKIyAFqmCFzBR5BFQqYAWNxHEExB62bUAlkdEHoVrfBxShwj5KVQGgko55YyUGK1RzWl2iUwD2liWXBlIG9plyGz2gBHhRlcpoz5RASKuFNAz2gQrYfwsUxNlHZG8ka84+IHvplLnaM7K3+KizzyCerRCriw83YG9VoC7+jN4/p/+aX1T4Zt/GeCZKoMg4zPHrgEwFL6BjkSk1QAgLkEswG0UQgElH6bISUBDSNaUTUwMuFIvpCMixZ30bkDwplGEVm7C0sSq1QVqrZXWU36JdarbFUXpMZp1QSDxzsbkOYgoOtmTy6xJt3C3A6dS8VExcAT4k24CrnYCrOeUuVoslGlpCKLEHCNA7o05J3mtBXofu4yKuASTCAOx8yKQCAU4CWoK93HwQ50OkisIae+eeAQxFIFnXEw8IyAeLiYtSwFtqvcCWKwCnja682lIBRW0FobKKElpBKGefh4hr1PWeKdOoRk0FnNMFZtp88E5bfwGJy6F3g2U9IHob+1dFjcQ16SpxBkD1kCioB2S0pei1chIm0OOsgFr0Yc2ogELvsUtxxSXqt5RI8Zb+DGD0dgN9idCHXHxXVBNP4IO1IMelXOGoZE0ujro0dQDgg03PeQyrWKbBCjY9Oy7ZqeOD6dlNhzZuR+D0Xzg+Rz/e/h+f/+XxOftTM9uZFi0QPYO4wTmvFj9JxvlYvA2Ifmybjvao7rVzYA5qgU6bsjiWZoVllpuXIg24JRQ/wCgmtoifC6f5AQAsr0m80xVQNa5agjU6dARg8YcM0U6W7cSt1LT2TG77TMFdCQVIjFUpsDVe8H4bt8ZSyFB7xV+lJCgtqd/kXCsfTRXq55wIb7Pm1rjoAyA0zU8gsU9626ldnUIiHOuMCitZRNdSnPxhUOABmOez5UIW0f5Ln9WvqUXBN/vs6hceNdf2FYri5vUpSNfH1632cL2rfTg8PV2uepf/+7td++lyLyy3vwE=);lineShape=1;strokeColor=default;&quot; value=&quot;&quot; vertex=&quot;1&quot;&gt;&#10;          &lt;mxGeometry height=&quot;16.523360371560898&quot; width=&quot;11.171973577355402&quot; x=&quot;595.5552969120199&quot; y=&quot;162.7742226860605&quot; as=&quot;geometry&quot; /&gt;&#10;        &lt;/mxCell&gt;&#10;        &lt;mxCell id=&quot;nG4IH-adCrYojkNgLSkZ-15&quot; parent=&quot;1&quot; style=&quot;shape=stencil(lVjbchsxCP0avzICCQk9p+l/ZCZO42kaZxz39vdl61nHQvaZ9s3e3bMIOBxgN/nu/fnhbbuR9H487L9uf+4ej8+b/Gkjsnt93h52R/+1yfebfPe0P2y/HPbfXx9P/98elieXX9/2P5Y3/DrhNFPnBSXp9+lKLiTl75XPJ8DL7vUCUIXKDEi3Aa0Q2whgynIbYEx1tCCVcgUAjUdiI2UASCR1BGTSDnwQyjkCGvBBO6UyAioVvQ0ohbKOTjMVkIfcKI8WRMmAD9LXIJ7zkCkhAMewFs89yDQr8XgkFarABxZiGQA1UQdHYiZOI6BRQxacGqPTrUK2utPhSE4WRQCjMlLDMhlga65kY5TMqdEgNXTMgxlMnDbSEgHNYImmFH1AmW5KfaxpE1xARqwRkEE9eNRzigBUcX6be/ShItXIKzfPAKWEAIVKsFBhWB0QLRhV5HRZ87oCeoKq4U73MUpdKGFtDWLc83rleuI6MUeAIWpU6jIBQIk6+UI9OEBAPTSXrRadZgRgMo5hRbrkgMglIwN5cICMR3JqdBRWif3ByScZOj3LTEMV5+8LPghOXKMiEYDarlOjTiWqwIelsU8yI8CH5XY4kmshLiCxmAdE76VEQ+IMF9DUp62TAfK5D6Htdl7l+VaUbKppRL7rAGBB6/q+83CS0toBrregHvtu77ArFo7s6+c+eb0rnqlzBlQ4JYpMcc3QBx825lQzmBI1yowHGtE7RXZ7zXaQhhSbbq1rz7vuANlYDGqrTN04f2hXxacA9H4vz9GAjyodBIh7HK7cZgOK4bOSjkdiXJ55Gq5cc8DzpVIdn69wLNGp9/hQAJ735aeN+sJw/GzTCJ3wrmTr+PvxPOL0MjmGNWPdbK4+7yXSwkgPB5ILXTgbUHgiL/NQx8vyBky4GnJYSxSvhzoBXItQr7V1ob3cYxAgxRHGR3AU1mUnHo9UFFqYt+4FgCRb4rbnAEEW0rqEXPiA2r9LvGoEJHAkVxMdqVEybJ3FV7VRUL1LGBBUB+SgYL6LYQsB4NRAk+F8JF+rUa+dnXaNRFvGHFanNyq5OXHZE4cyPVHDAWh5++9PPv8A8B8fX5iedi8vpw9Ul/fjFym/dPqale//AA==);lineShape=1;strokeColor=default;&quot; value=&quot;&quot; vertex=&quot;1&quot;&gt;&#10;          &lt;mxGeometry height=&quot;15.815018727835422&quot; width=&quot;13.492507110039242&quot; x=&quot;605.3929812196336&quot; y=&quot;159.6991765006178&quot; as=&quot;geometry&quot; /&gt;&#10;        &lt;/mxCell&gt;&#10;        &lt;mxCell id=&quot;nG4IH-adCrYojkNgLSkZ-16&quot; parent=&quot;1&quot; style=&quot;shape=stencil(rVfLbhsxDPwaXwmJlCjpnKb/ESBObdSNA8d9/X25NbS26N1BA/Tm2JpQJIfD0UYe3ndPb9sNh/fz6fh1+3P/fN5t5NOGef+62572Z/u0kceNPLwcT9svp+P31+fL329P08np07fjj+k//LrgcqUYJhSH35dvYqCW/n7z+QI47F9vACmTOoCQxHWAlLsIFpPXAdw8gBMJAkTSNAAkEhcACJTHCHbJ0kAOiUoZAClQyaBKlSR4QNV1gGYKOgKYEuhDFco8AgolEKEpqQyAbABQpVaptQGgiUJdB8QQKIxZl0xJQIhCNQ6AqhRBI6rVNQ+AlonDOqAIlTFCa9QQNxpp9YAKWs1KPLJvKhy4Eksv+wwoH+T3lDRotfG7jWRqDIfaIqSx1S2QgqG2HOJYJetMRknnXsSbTsOyNuKR3zV3sizP6JziDSAjgA3EXQREDTEijI2rpm1IK5lEfZUauFISPw8twpFLNpGucQInziJER43cJ2QZELtY37BVkVZWTw0boAg6beKq6gENAUIv4nVnzcqzTCYbMPEhGCQxbZzgs0adY6Yovq4NdM5GLjglM6nCKuDrGkmQkrHfcrX15q8lfc9vQbJRKbiRU0hX28s60nWaUUBXsf1xN6PlfwI0evZZDgpyKKlXfQYkqMbFvMXYONuKyAsYIIwRdJaqZUDs7mVe7Q1eyZKOY4Ssnb9rfiaMI5cTVgFZAAgARO0DOQMYAu6sg92xgvN33mTyfGCiza+587YSkV3qt51dK9ak2LrTuTHSjPaV3WiktnYJWe5Z6ByYbwQnwepdx/OhO5vl86kL3PU8StjsptskoS+v5fPNkzR0l7JGatfhCK2hsnfQDPeUivcL+OFjbplHhU/96bR23glLhmvQ7uPqX4iBcNl55xUq9EdWz+L2MmUkKsE/YewpiSb4w2/PfwDYh+tT92V/OFxeyre/+6exfXV5VsvjHw==);lineShape=1;strokeColor=default;&quot; value=&quot;&quot; vertex=&quot;1&quot;&gt;&#10;          &lt;mxGeometry height=&quot;15.787570113552988&quot; width=&quot;9.921659193340702&quot; x=&quot;620.4951736127493&quot; y=&quot;157.1174097636009&quot; as=&quot;geometry&quot; /&gt;&#10;        &lt;/mxCell&gt;&#10;        &lt;mxCell id=&quot;nG4IH-adCrYojkNgLSkZ-17&quot; parent=&quot;1&quot; style=&quot;shape=stencil(7VjLbttADPwaX4ldcp/ntP2PAHEao2kcOOnr70vVXcWkpAmCAr20N1smxeVwSI53J1dPd9eP+x2Hp+fT8dP+2+Hm+W4n73bMh4e7/enwrJ928n4nV7fH0/7j6fjl4eb8/fF6spw+fT5+nd7w/eyXKOTJicOP84PIJPLryYez/f3h4cI+NsrBOHTitm0vgTob+0IlbtunSGLfn0bAdftKvRh7psLb9rkQJ2MfKID3l0Td2meITymUowW0UQEATQGqcZBIGUUQqrZkKVFCEZiChUhBKChnhURszTK1DkBtFG3Rqj7JwCF7VvQIUdITR5t0Fyo4QnERMkQpJ6o26V4pAqZmoWyZ0RsldCQe75sdOiVQhxwos3fogBqpUWuWfAHTW9uHiw+BuJEy1eazrgU4JN8Qiivid5Lx80XlOqhc4kHO2SFRBHRVh+Iqx3CIqYNPOpCAUiusjq4tUEVjScekdaiCGyL7ltPJg8ikTZ0sStq1HaCkPe/mTI7UQKVrHJhcDKYOOqgpc2wO07AHERR1tjnotEc5THUV7xABSsoct344jvm87lBIoo/wm13rDo0C+6QDoEafF+zskPGR5iExO7SB26aDPZJu7QpadDqSrbQIBZR0HR08OyTY0wqrm0uiQKMIaXGk8ho1YvUODfT0RD47NSTDaaz0LsUnjXJodYze2YFHzC2H6MRPhzmog7gGqpQA+TSHJfkY9XSn6vpB4FbUxZ9dDjxaat1BhoC8bFHE1uzrwFjjTgsqLHJAXGq+gSaUcIu6hTLVAUS42OMXpe54bDh5omQSNPpUvSzpirN+m4PuwGJbTrdYANyoeWi8eckpW8DYqKqYLL9LG4t1S667nVUT3orsNVljLHX/inJ1cuYfUa7Vh/ivXP9Yueq/Swur8huilL1y1ZaLYGlpqcVyI1fM7+CXlr4igQiTTrV10NWO5Ik2RHdrUSD58mJTxzjuIdaT7h7WKLgO7NV3THBs6HQvNodYKIMdxPqHwB2pj7uO9dHnFZYKV0YgUYjeHsmfBfPUPoINx35O6htQwnGhG3j8/1i1D9QWOgMtn+Al68uTDXu30WMbvN2yt6yOquZAvmH8OttnyNHgNfrEOJDvosuiwKs9HXbuPDwQXm+BN15Nvm6vH17uQW8P9/fna9TL3/29qT4637nK+58=);lineShape=1;strokeColor=default;&quot; value=&quot;&quot; vertex=&quot;1&quot;&gt;&#10;          &lt;mxGeometry height=&quot;13.093946364604335&quot; width=&quot;15.378303781071509&quot; x=&quot;601.8746019703731&quot; y=&quot;256.9414439964039&quot; as=&quot;geometry&quot; /&gt;&#10;        &lt;/mxCell&gt;&#10;        &lt;mxCell id=&quot;nG4IH-adCrYojkNgLSkZ-18&quot; parent=&quot;1&quot; style=&quot;shape=stencil(lVjLctswDPwaXzEkSJDgOU3/IzNxGk/TOOO4r78vVA9lEbI2k5ujYEUS2F2A2qW79+eHt/2Ow/v5dPy+/314PD/v0pcd8+H1eX86nO3XLt3v0t3T8bT/djr+fH28/P32MEVOv34cf01v+HPB1Ua1TCgOfy9PGoX0/8HXS/zL4XURXxqlOsTHQFIAIKwATKzbAImUwgjIJLwNyImaW6FSBoBUqMoA4NCzcBNgOdFxBc5UECBR5RGgpLINuO64AxJTAyvE2P89AxpFBKgU0wCQQIrPUPIAsFKWANLKlMfC1UixgsJxp1oHqJEFkM+o0doIqMQRkC9SHldoxi5APqN31hHAVAHA9JPHLTXTQ94GaKbkziDEgK1aKI5srQWvUPoR58LZE5ClaYVxS2J0RCsItZEa2RQCqKGpJ3EGZGKgh6reBJISI19KnhpG+ATSagAetxQF2owB0qi4aAoBZyi513UGRNIGAOK92LwV1aFUUkdvGF9DV8vMvZ612/HsLQB7TM2kTj3UAPGMyKX5DCHHqNUvYM1E0QraDWXRTFDRbIXmVjC14TP4LSlF5Bji9RwbCRCPVaGt2hWitpVZ2ANgj1bfGwzAYEtmKCH4MzAonGnBeZLJE3UfU5tzbqtDRFpI3VAWlYZbSr0jL7iUkZ6l13UhT0XNxFrumCUbtlC3ar6B2iyGmGR24uUZkPxzF9c1HjX0uuo8duCKALXTbDnrAdf+NEBnU18MVhFsqWU/Y9j0F4B42qqhZ4HzagzBi0ESCbBVW6KMdbA5pWCAHwEiVZCmplRGo7dMF3CIVvuEMHcGUywQg+XVdUObe5DtafNeb69oaO5JXY0zQKGgzVjVX03m0mwJ1JHDMo1cSYpfouEpIxfvSjZPMtBoEgrFFwKO6bm/by61wNvPZIsjXc2cEZnEz26S4Qwd/FXGZj0BdVvJx3JQgE2aokeqTraK1NNnojne3o8SJF6eHPuF8XYJ2N/2rpet20UOfQML20NHsOG3eOdGLMqz2ueaQa3JyodTd8FN4TipUUWdp/puHnBn0875RTy6XwQ/zH9gRrEb9DUeUUK5H+96XtQTdHV3ZkgIzd4m0kfxMuYzw3uwxeexXoJvhNm7UOl2v3Xe5EwIv599PO7iVi83oCpsmJ/9qvVxvP24fkJ7Ory8XL7ALf/vP7nZo8vnunT/Dw==);lineShape=1;strokeColor=default;&quot; value=&quot;&quot; vertex=&quot;1&quot;&gt;&#10;          &lt;mxGeometry height=&quot;18.059216890846415&quot; width=&quot;13.848627484447206&quot; x=&quot;616.4485695654871&quot; y=&quot;261.84375501531883&quot; as=&quot;geometry&quot; /&gt;&#10;        &lt;/mxCell&gt;&#10;        &lt;mxCell id=&quot;nG4IH-adCrYojkNgLSkZ-19&quot; parent=&quot;1&quot; style=&quot;shape=parallelogram;perimeter=parallelogramPerimeter;whiteSpace=wrap;html=1;shapeInside=1;fixedSize=1;&quot; value=&quot;output health&quot; vertex=&quot;1&quot;&gt;&#10;          &lt;mxGeometry height=&quot;60&quot; width=&quot;120&quot; x=&quot;827&quot; y=&quot;190&quot; as=&quot;geometry&quot; /&gt;&#10;        &lt;/mxCell&gt;&#10;        &lt;mxCell id=&quot;nG4IH-adCrYojkNgLSkZ-20&quot; edge=&quot;1&quot; parent=&quot;1&quot; style=&quot;endArrow=classic;html=1;rounded=0;&quot; value=&quot;&quot;&gt;&#10;          &lt;mxGeometry height=&quot;50&quot; relative=&quot;1&quot; width=&quot;50&quot; as=&quot;geometry&quot;&gt;&#10;            &lt;mxPoint x=&quot;777&quot; y=&quot;140&quot; as=&quot;sourcePoint&quot; /&gt;&#10;            &lt;mxPoint x=&quot;820&quot; y=&quot;180&quot; as=&quot;targetPoint&quot; /&gt;&#10;          &lt;/mxGeometry&gt;&#10;        &lt;/mxCell&gt;&#10;        &lt;mxCell id=&quot;nG4IH-adCrYojkNgLSkZ-21&quot; edge=&quot;1&quot; parent=&quot;1&quot; style=&quot;endArrow=classic;html=1;rounded=0;&quot; value=&quot;&quot;&gt;&#10;          &lt;mxGeometry height=&quot;50&quot; relative=&quot;1&quot; width=&quot;50&quot; as=&quot;geometry&quot;&gt;&#10;            &lt;mxPoint x=&quot;780&quot; y=&quot;311.84000000000003&quot; as=&quot;sourcePoint&quot; /&gt;&#10;            &lt;mxPoint x=&quot;830&quot; y=&quot;261.84000000000003&quot; as=&quot;targetPoint&quot; /&gt;&#10;          &lt;/mxGeometry&gt;&#10;        &lt;/mxCell&gt;&#10;        &lt;mxCell id=&quot;nG4IH-adCrYojkNgLSkZ-22&quot; edge=&quot;1&quot; parent=&quot;1&quot; style=&quot;endArrow=classic;html=1;rounded=0;&quot; target=&quot;nG4IH-adCrYojkNgLSkZ-23&quot; value=&quot;&quot;&gt;&#10;          &lt;mxGeometry height=&quot;50&quot; relative=&quot;1&quot; width=&quot;50&quot; as=&quot;geometry&quot;&gt;&#10;            &lt;mxPoint x=&quot;947&quot; y=&quot;225.51&quot; as=&quot;sourcePoint&quot; /&gt;&#10;            &lt;mxPoint x=&quot;990&quot; y=&quot;225.51&quot; as=&quot;targetPoint&quot; /&gt;&#10;          &lt;/mxGeometry&gt;&#10;        &lt;/mxCell&gt;&#10;        &lt;mxCell id=&quot;nG4IH-adCrYojkNgLSkZ-23&quot; parent=&quot;1&quot; style=&quot;rounded=1;whiteSpace=wrap;html=1;&quot; value=&quot;End&quot; vertex=&quot;1&quot;&gt;&#10;          &lt;mxGeometry height=&quot;34.49&quot; width=&quot;70&quot; x=&quot;980&quot; y=&quot;202.76&quot; as=&quot;geometry&quot; /&gt;&#10;        &lt;/mxCell&gt;&#10;      &lt;/root&gt;&#10;    &lt;/mxGraphModel&gt;&#10;  &lt;/diagram&gt;&#10;&lt;/mxfile&gt;&#10;"><style type="text/css">@supports (color: light-dark(#000, #fff)) { #ge-svg-xv5JpEPVqUkL0Jm7CT_2 { --ge-adaptive-bg: light-dark(#ffffff, var(--ge-dark-color, #121212)); } }</style><defs/><g><g data-cell-id="0"><g data-cell-id="1"><g data-cell-id="nG4IH-adCrYojkNgLSkZ-1"><g transform="translate(0.5,0.5)"><rect x="0" y="90" width="60" height="40" rx="6" ry="6" fill="#ffffff" stroke="#000000" pointer-events="all" style="fill: var(--ge-adaptive-bg, #ffffff); stroke: light-dark(rgb(0, 0, 0), rgb(255, 255, 255));"/></g><g><g><switch><foreignObject style="overflow: visible; text-align: left;" pointer-events="none" width="100%" height="100%" requiredFeatures="http://www.w3.org/TR/SVG11/feature#Extensibility"><div xmlns="http://www.w3.org/1999/xhtml" style="display: flex; align-items: unsafe center; justify-content: unsafe center; width: 58px; height: 1px; padding-top: 110px; margin-left: 1px;"><div style="box-sizing: border-box; font-size: 0; text-align: center; color: #000000; "><div style="display: inline-block; font-size: 12px; font-family: Helvetica; color: light-dark(#000000, #ffffff); line-height: 1.2; pointer-events: all; white-space: normal; word-wrap: normal; ">Start</div></div></div></foreignObject><text x="30" y="114" fill="#000000" font-family="Helvetica" font-size="12px" text-anchor="middle" style="fill: light-dark(rgb(0, 0, 0), rgb(255, 255, 255));">Start</text></switch></g></g></g><g data-cell-id="nG4IH-adCrYojkNgLSkZ-2"><g transform="translate(0.5,0.5)"><path d="M 60 110 L 103.63 110" fill="none" stroke="#000000" stroke-miterlimit="10" pointer-events="stroke" style="stroke: light-dark(rgb(0, 0, 0), rgb(255, 255, 255));"/><path d="M 108.88 110 L 101.88 113.5 L 103.63 110 L 101.88 106.5 Z" fill="#000000" stroke="#000000" stroke-miterlimit="10" pointer-events="all" style="fill: light-dark(rgb(0, 0, 0), rgb(255, 255, 255)); stroke: light-dark(rgb(0, 0, 0), rgb(255, 255, 255));"/></g></g><g data-cell-id="nG4IH-adCrYojkNgLSkZ-4"><g transform="translate(0.5,0.5)"><path d="M 230 110 L 273.63 110" fill="none" stroke="#000000" stroke-miterlimit="10" pointer-events="stroke" style="stroke: light-dark(rgb(0, 0, 0), rgb(255, 255, 255));"/><path d="M 278.88 110 L 271.88 113.5 L 273.63 110 L 271.88 106.5 Z" fill="#000000" stroke="#000000" stroke-miterlimit="10" pointer-events="all" style="fill: light-dark(rgb(0, 0, 0), rgb(255, 255, 255)); stroke: light-dark(rgb(0, 0, 0), rgb(255, 255, 255));"/></g></g><g data-cell-id="nG4IH-adCrYojkNgLSkZ-5"><g transform="translate(0.5,0.5)"><path d="M 110 150 L 130 80 L 250 80 L 230 150 Z" fill="#ffffff" stroke="#000000" stroke-miterlimit="10" pointer-events="all" style="fill: var(--ge-adaptive-bg, #ffffff); stroke: light-dark(rgb(0, 0, 0), rgb(255, 255, 255));"/></g><g><g><switch><foreignObject style="overflow: visible; text-align: left;" pointer-events="none" width="100%" height="100%" requiredFeatures="http://www.w3.org/TR/SVG11/feature#Extensibility"><div xmlns="http://www.w3.org/1999/xhtml" style="display: flex; align-items: unsafe center; justify-content: unsafe center; width: 138px; height: 1px; padding-top: 115px; margin-left: 111px;"><div style="box-sizing: border-box; font-size: 0; text-align: center; color: #000000; "><div style="display: inline-block; font-size: 12px; font-family: Helvetica; color: light-dark(#000000, #ffffff); line-height: 1.2; pointer-events: all; white-space: normal; word-wrap: normal; "><div style="float:left;width:138px;height:66px;"><div data-shape-inside="1" contenteditable="false" style="float:left;width:69px;height:32px;shape-outside:polygon(26.71% 0.05%, 13.46% 99.95%, 0.05% 99.95%, 0.05% 0.05%);shape-margin:2px;pointer-events:none;"></div><div data-shape-inside="1" contenteditable="false" style="float:right;width:69px;height:32px;shape-outside:polygon(99.95% 0.05%, 99.95% 99.95%, 87.37% 99.95%, 99.95% 0.05%);shape-margin:2px;pointer-events:none;"></div><div data-shape-inside="1" contenteditable="false" style="height:19px;pointer-events:none;"></div>Input health, spell_shield_is_active</div></div></div></div></foreignObject><text x="180" y="98" fill="#000000" font-family="Helvetica" font-size="12px" text-anchor="middle" style="fill: light-dark(rgb(0, 0, 0), rgb(255, 255, 255));"><tspan x="180" y="98"></tspan><tspan x="180" y="112"></tspan><tspan x="180" y="126">Input health,</tspan><tspan x="180" y="140">spell_shield_is_active</tspan></text></switch></g></g></g><g data-cell-id="nG4IH-adCrYojkNgLSkZ-7"><g transform="translate(0.5,0.5)"><rect x="280" y="85" width="120" height="60" fill="#ffffff" stroke="#000000" pointer-events="all" style="fill: var(--ge-adaptive-bg, #ffffff); stroke: light-dark(rgb(0, 0, 0), rgb(255, 255, 255));"/></g><g><g><switch><foreignObject style="overflow: visible; text-align: left;" pointer-events="none" width="100%" height="100%" requiredFeatures="http://www.w3.org/TR/SVG11/feature#Extensibility"><div xmlns="http://www.w3.org/1999/xhtml" style="display: flex; align-items: unsafe center; justify-content: unsafe center; width: 118px; height: 1px; padding-top: 115px; margin-left: 281px;"><div style="box-sizing: border-box; font-size: 0; text-align: center; color: #000000; "><div style="display: inline-block; font-size: 12px; font-family: Helvetica; color: light-dark(#000000, #ffffff); line-height: 1.2; pointer-events: all; white-space: normal; word-wrap: normal; ">attackstrength<br />=random(1,10)</div></div></div></foreignObject><text x="340" y="112" fill="#000000" font-family="Helvetica" font-size="12px" text-anchor="middle" style="fill: light-dark(rgb(0, 0, 0), rgb(255, 255, 255));"><tspan x="340" y="112">attackstrength</tspan><tspan x="340" y="126">=random(1,10)</tspan></text></switch></g></g></g><g data-cell-id="nG4IH-adCrYojkNgLSkZ-8"><g transform="translate(0.5,0.5)"><path d="M 400 120 L 443.63 120" fill="none" stroke="#000000" stroke-miterlimit="10" pointer-events="stroke" style="stroke: light-dark(rgb(0, 0, 0), rgb(255, 255, 255));"/><path d="M 448.88 120 L 441.88 123.5 L 443.63 120 L 441.88 116.5 Z" fill="#000000" stroke="#000000" stroke-miterlimit="10" pointer-events="all" style="fill: light-dark(rgb(0, 0, 0), rgb(255, 255, 255)); stroke: light-dark(rgb(0, 0, 0), rgb(255, 255, 255));"/></g></g><g data-cell-id="nG4IH-adCrYojkNgLSkZ-9"><g transform="translate(0.5,0.5)"><path d="M 530 40 L 610 120 L 530 200 L 450 120 Z" fill="#ffffff" stroke="#000000" stroke-miterlimit="10" pointer-events="all" style="fill: var(--ge-adaptive-bg, #ffffff); stroke: light-dark(rgb(0, 0, 0), rgb(255, 255, 255));"/></g><g><g><switch><foreignObject style="overflow: visible; text-align: left;" pointer-events="none" width="100%" height="100%" requiredFeatures="http://www.w3.org/TR/SVG11/feature#Extensibility"><div xmlns="http://www.w3.org/1999/xhtml" style="display: flex; align-items: unsafe center; justify-content: unsafe center; width: 158px; height: 1px; padding-top: 120px; margin-left: 451px;"><div style="box-sizing: border-box; font-size: 0; text-align: center; color: #000000; "><div style="display: inline-block; font-size: 12px; font-family: Helvetica; color: light-dark(#000000, #ffffff); line-height: 1.2; pointer-events: all; white-space: normal; word-wrap: normal; "><div style="float:left;width:158px;height:156px;"><div data-shape-inside="1" contenteditable="false" style="float:left;width:79px;height:156px;shape-outside:polygon(97.47% 0.05%, 0.05% 50%, 97.47% 99.95%, 0.05% 99.95%, 0.05% 0.05%);shape-margin:2px;pointer-events:none;"></div><div data-shape-inside="1" contenteditable="false" style="float:right;width:79px;height:156px;shape-outside:polygon(2.53% 0.05%, 99.95% 50%, 2.53% 99.95%, 99.95% 99.95%, 99.95% 0.05%);shape-margin:2px;pointer-events:none;"></div><div><br /></div><div> spell_shield_is_active?</div></div></div></div></div></foreignObject><text x="530" y="103" fill="#000000" font-family="Helvetica" font-size="12px" text-anchor="middle" style="fill: light-dark(rgb(0, 0, 0), rgb(255, 255, 255));"><tspan x="530" y="103"></tspan><tspan x="530" y="117"></tspan><tspan x="530" y="131"></tspan><tspan x="530" y="145">spell_shield_is_active?</tspan></text></switch></g></g></g><g data-cell-id="nG4IH-adCrYojkNgLSkZ-10"><g transform="translate(0.5,0.5)"><path d="M 600 100 L 634.91 73.82" fill="none" stroke="#000000" stroke-miterlimit="10" pointer-events="stroke" style="stroke: light-dark(rgb(0, 0, 0), rgb(255, 255, 255));"/><path d="M 639.11 70.67 L 635.61 77.67 L 634.91 73.82 L 631.41 72.07 Z" fill="#000000" stroke="#000000" stroke-miterlimit="10" pointer-events="all" style="fill: light-dark(rgb(0, 0, 0), rgb(255, 255, 255)); stroke: light-dark(rgb(0, 0, 0), rgb(255, 255, 255));"/></g></g><g data-cell-id="nG4IH-adCrYojkNgLSkZ-11"><g transform="translate(0.5,0.5)"><path d="M 590 160 L 635.03 196.02" fill="none" stroke="#000000" stroke-miterlimit="10" pointer-events="stroke" style="stroke: light-dark(rgb(0, 0, 0), rgb(255, 255, 255));"/><path d="M 639.13 199.3 L 631.47 197.66 L 635.03 196.02 L 635.85 192.2 Z" fill="#000000" stroke="#000000" stroke-miterlimit="10" pointer-events="all" style="fill: light-dark(rgb(0, 0, 0), rgb(255, 255, 255)); stroke: light-dark(rgb(0, 0, 0), rgb(255, 255, 255));"/></g></g><g data-cell-id="nG4IH-adCrYojkNgLSkZ-12"><g transform="translate(0.5,0.5)"><rect x="640" y="0" width="120" height="60" fill="#ffffff" stroke="#000000" pointer-events="all" style="fill: var(--ge-adaptive-bg, #ffffff); stroke: light-dark(rgb(0, 0, 0), rgb(255, 255, 255));"/></g><g><g><switch><foreignObject style="overflow: visible; text-align: left;" pointer-events="none" width="100%" height="100%" requiredFeatures="http://www.w3.org/TR/SVG11/feature#Extensibility"><div xmlns="http://www.w3.org/1999/xhtml" style="display: flex; align-items: unsafe center; justify-content: unsafe center; width: 118px; height: 1px; padding-top: 30px; margin-left: 641px;"><div style="box-sizing: border-box; font-size: 0; text-align: center; color: #000000; "><div style="display: inline-block; font-size: 12px; font-family: Helvetica; color: light-dark(#000000, #ffffff); line-height: 1.2; pointer-events: all; white-space: normal; word-wrap: normal; ">health=health-attackstrength/2</div></div></div></foreignObject><text x="700" y="34" fill="#000000" font-family="Helvetica" font-size="12px" text-anchor="middle" style="fill: light-dark(rgb(0, 0, 0), rgb(255, 255, 255));">health=health-attackstrength/2</text></switch></g></g></g><g data-cell-id="nG4IH-adCrYojkNgLSkZ-13"><g transform="translate(0.5,0.5)"><rect x="650" y="180" width="120" height="60" fill="#ffffff" stroke="#000000" pointer-events="all" style="fill: var(--ge-adaptive-bg, #ffffff); stroke: light-dark(rgb(0, 0, 0), rgb(255, 255, 255));"/></g><g><g><switch><foreignObject style="overflow: visible; text-align: left;" pointer-events="none" width="100%" height="100%" requiredFeatures="http://www.w3.org/TR/SVG11/feature#Extensibility"><div xmlns="http://www.w3.org/1999/xhtml" style="display: flex; align-items: unsafe center; justify-content: unsafe center; width: 118px; height: 1px; padding-top: 210px; margin-left: 651px;"><div style="box-sizing: border-box; font-size: 0; text-align: center; color: #000000; "><div style="display: inline-block; font-size: 12px; font-family: Helvetica; color: light-dark(#000000, #ffffff); line-height: 1.2; pointer-events: all; white-space: normal; word-wrap: normal; ">health=health-attackstrength</div></div></div></foreignObject><text x="710" y="214" fill="#000000" font-family="Helvetica" font-size="12px" text-anchor="middle" style="fill: light-dark(rgb(0, 0, 0), rgb(255, 255, 255));">health=health-attackstrength</text></switch></g></g></g><g data-cell-id="nG4IH-adCrYojkNgLSkZ-14"><g transform="translate(0.5,0.5)"><path d="M 597.46 64.3 L 597.2 64.95 L 598.07 66.86 L 598.65 68.04 L 599.85 69.52 L 601.28 70.83 L 602.5 69.73 L 603.19 68.37 L 603.79 66.88 L 604.34 65.45 L 604.63 64.33 L 605.03 63.37 L 605.12 63.18 L 605.25 63.02 L 605.42 62.89 L 605.61 62.81 L 605.82 62.77 L 606.03 62.79 L 606.23 62.86 L 606.41 62.97 L 606.56 63.12 L 606.66 63.31 L 606.72 63.51 L 606.73 63.72 L 606.68 63.93 L 606.4 65.81 L 605.79 67.68 L 605.12 69.7 L 604.44 71.46 L 603.89 72.88 L 603.26 74.21 L 602.62 75.45 L 601.55 78.67 L 601.47 78.9 L 601.32 79.1 L 601.12 79.23 L 600.88 79.3 L 600.63 79.28 L 600.41 79.19 L 600.22 79.03 L 600.09 78.82 L 600.04 78.58 L 600.07 78.33 L 600.17 78.11 L 600.34 77.93 L 600.56 77.82 L 600.81 77.78 L 601.05 77.82 L 601.27 77.94 L 601.44 78.12 L 601.54 78.34 L 601.56 78.59 L 601.51 78.83 L 601.38 79.04 L 601.19 79.2 L 600.96 79.28 L 600.71 79.3 L 600.48 79.23 L 600.27 79.09 L 600.13 78.89 L 600.05 78.66 L 600.05 78.41 L 600.05 78.41 L 601.34 74.76 L 601.99 73.59 L 602.61 72.37 L 603.17 70.99 L 603.77 69.3 L 604.29 67.27 L 604.7 65.46 L 605.03 63.37 L 605.12 63.18 L 605.25 63.02 L 605.42 62.89 L 605.61 62.81 L 605.82 62.77 L 606.03 62.79 L 606.23 62.86 L 606.41 62.97 L 606.56 63.12 L 606.66 63.31 L 606.72 63.51 L 606.73 63.72 L 606.68 63.93 L 606.22 64.76 L 605.87 66.01 L 605.35 67.46 L 604.79 69.13 L 604.1 70.7 L 603.25 72.1 L 602.17 72.81 L 600.9 72.7 L 599.32 71.47 L 598.51 70.67 L 597.82 69.83 L 597.12 68.8 L 596.47 67.51 L 595.89 66.13 L 595.56 64.59 L 595.87 63.7 L 595.97 63.52 L 596.1 63.37 L 596.27 63.25 L 596.46 63.18 L 596.66 63.15 L 596.87 63.17 L 597.06 63.25 L 597.23 63.36 L 597.36 63.51 L 597.46 63.7 L 597.51 63.89 L 597.51 64.1 L 597.46 64.3 L 597.46 64.3" fill="#000000" stroke="#000000" stroke-miterlimit="10" pointer-events="all" style="fill: light-dark(rgb(0, 0, 0), rgb(255, 255, 255)); stroke: light-dark(rgb(0, 0, 0), rgb(255, 255, 255));"/></g></g><g data-cell-id="nG4IH-adCrYojkNgLSkZ-15"><g transform="translate(0.5,0.5)"><path d="M 612.67 65.11 L 613.81 65.11 L 615.4 64.65 L 616.4 63.87 L 616.92 62.63 L 616.22 61.85 L 615.15 61.87 L 613.36 62.3 L 611.38 63.09 L 610.43 63.79 L 609.35 64.93 L 608.28 66.4 L 607.44 68.02 L 607.03 69.34 L 606.89 70.41 L 607.48 71.75 L 608.24 72.43 L 609.23 72.96 L 610.36 73.37 L 611.4 73.63 L 613.16 73.74 L 615.38 72.89 L 615.64 72.76 L 615.94 72.72 L 616.23 72.78 L 616.48 72.93 L 616.68 73.15 L 616.79 73.42 L 616.81 73.72 L 616.74 74 L 616.58 74.25 L 616.35 74.44 L 616.07 74.53 L 615.77 74.54 L 615.49 74.45 L 615.25 74.28 L 615.08 74.03 L 615 73.75 L 615.01 73.46 L 615.11 73.18 L 615.3 72.95 L 615.55 72.79 L 615.84 72.72 L 616.13 72.75 L 616.4 72.87 L 616.62 73.07 L 616.76 73.33 L 616.82 73.62 L 616.77 73.91 L 616.64 74.18 L 616.43 74.38 L 616.43 74.38 L 613.06 75.51 L 612.02 75.44 L 610.96 75.27 L 609.78 74.93 L 608.41 74.41 L 607.1 73.63 L 606.08 72.59 L 605.47 71.39 L 605.39 70.18 L 605.64 68.9 L 606.13 67.4 L 606.96 65.54 L 608.02 63.77 L 609.25 62.26 L 610.58 61.23 L 611.68 60.74 L 612.79 60.28 L 613.86 59.97 L 615.03 59.73 L 616.05 59.7 L 617.06 59.9 L 618.04 60.43 L 618.89 62.07 L 618.69 63.87 L 617.69 65.29 L 616.88 65.96 L 615.95 66.42 L 614.96 66.7 L 613.82 66.89 L 612.67 66.89 L 612.45 66.86 L 612.26 66.78 L 612.08 66.66 L 611.94 66.5 L 611.84 66.31 L 611.79 66.11 L 611.79 65.89 L 611.84 65.69 L 611.94 65.5 L 612.08 65.34 L 612.26 65.22 L 612.45 65.14 L 612.67 65.11 L 612.67 65.11" fill="#000000" stroke="#000000" stroke-miterlimit="10" pointer-events="all" style="fill: light-dark(rgb(0, 0, 0), rgb(255, 255, 255)); stroke: light-dark(rgb(0, 0, 0), rgb(255, 255, 255));"/></g></g><g data-cell-id="nG4IH-adCrYojkNgLSkZ-16"><g transform="translate(0.5,0.5)"><path d="M 626.26 58.84 L 625.02 59.22 L 624.18 59.98 L 623.38 60.96 L 622.64 62.05 L 622.53 63.08 L 623.94 63.55 L 625.29 63.57 L 626.95 63.82 L 628.78 64.61 L 630.08 66.19 L 630.32 67.23 L 630.42 69.03 L 630.2 70.72 L 629.26 72.15 L 627.81 72.9 L 623.44 72.88 L 623.1 72.73 L 622.82 72.48 L 622.64 72.16 L 622.57 71.79 L 622.63 71.42 L 622.8 71.09 L 623.06 70.83 L 623.39 70.66 L 623.76 70.62 L 624.13 70.69 L 624.45 70.87 L 624.7 71.15 L 624.84 71.5 L 624.87 71.87 L 624.78 72.23 L 624.57 72.54 L 624.28 72.77 L 623.93 72.9 L 623.56 72.9 L 623.21 72.79 L 622.91 72.58 L 622.69 72.27 L 622.58 71.91 L 622.6 71.54 L 622.73 71.19 L 622.96 70.91 L 623.28 70.71 L 623.64 70.62 L 624.01 70.65 L 624.01 70.65 L 626.61 70.8 L 627.87 70.42 L 628.21 69.09 L 628.14 67.64 L 627.62 66.47 L 626.56 65.98 L 625.26 65.75 L 623.77 65.7 L 622.11 65.39 L 621.27 64.84 L 620.5 63.07 L 620.57 61.96 L 621.43 60.27 L 622.4 59.2 L 623.55 58.07 L 624.49 57.55 L 625.74 57.16 L 625.95 57.12 L 626.16 57.13 L 626.37 57.19 L 626.55 57.31 L 626.7 57.46 L 626.81 57.64 L 626.87 57.84 L 626.88 58.06 L 626.84 58.27 L 626.75 58.46 L 626.62 58.63 L 626.45 58.76 L 626.26 58.84 L 626.26 58.84" fill="#000000" stroke="#000000" stroke-miterlimit="10" pointer-events="all" style="fill: light-dark(rgb(0, 0, 0), rgb(255, 255, 255)); stroke: light-dark(rgb(0, 0, 0), rgb(255, 255, 255));"/></g></g><g data-cell-id="nG4IH-adCrYojkNgLSkZ-17"><g transform="translate(0.5,0.5)"><path d="M 602.5 158.56 L 604.72 158.16 L 606.63 157.81 L 608.23 157.53 L 609.25 157.28 L 610.52 156.94 L 611.86 157.64 L 612.1 159.39 L 611.87 161.07 L 611.68 162.77 L 611.42 164.35 L 611.11 165.57 L 610.81 167.17 L 610.47 168.95 L 610.51 169.2 L 610.43 169.44 L 610.29 169.66 L 610.11 169.83 L 609.89 169.96 L 609.64 170.03 L 609.39 170.04 L 609.14 169.98 L 608.91 169.87 L 608.72 169.71 L 608.57 169.51 L 608.47 169.27 L 608.43 169.02 L 608.45 168.77 L 609.13 167.51 L 609.71 166.59 L 610.35 165.64 L 611.18 164.67 L 611.99 163.73 L 612.85 162.82 L 615.52 160.16 L 615.76 159.95 L 616.06 159.84 L 616.38 159.82 L 616.69 159.91 L 616.95 160.09 L 617.14 160.34 L 617.24 160.65 L 617.24 160.97 L 617.14 161.27 L 616.94 161.52 L 616.68 161.7 L 616.37 161.78 L 616.05 161.77 L 615.75 161.65 L 615.51 161.44 L 615.35 161.16 L 615.28 160.85 L 615.31 160.53 L 615.45 160.24 L 615.67 160.01 L 615.95 159.86 L 616.27 159.81 L 616.59 159.87 L 616.87 160.02 L 617.09 160.25 L 617.22 160.54 L 617.25 160.86 L 617.18 161.17 L 617.02 161.44 L 617.02 161.44 L 614.28 164.15 L 613.51 165 L 612.73 165.97 L 612.08 166.76 L 611.49 167.7 L 610.51 169.2 L 610.43 169.44 L 610.29 169.66 L 610.11 169.83 L 609.89 169.96 L 609.64 170.03 L 609.39 170.04 L 609.14 169.98 L 608.91 169.87 L 608.72 169.71 L 608.57 169.51 L 608.47 169.27 L 608.43 169.02 L 608.45 168.77 L 608.61 167.78 L 608.94 165.86 L 609.31 164.47 L 609.62 163.28 L 609.85 161.66 L 610.18 159.95 L 610.73 158.51 L 609.53 158.69 L 608.45 158.86 L 606.9 159.11 L 605.02 159.55 L 602.84 160.11 L 602.65 160.13 L 602.45 160.1 L 602.28 160.03 L 602.12 159.91 L 602 159.77 L 601.91 159.59 L 601.87 159.41 L 601.88 159.22 L 601.93 159.03 L 602.03 158.86 L 602.16 158.72 L 602.32 158.62 L 602.5 158.56 L 602.5 158.56" fill="#000000" stroke="#000000" stroke-miterlimit="10" pointer-events="all" style="fill: light-dark(rgb(0, 0, 0), rgb(255, 255, 255)); stroke: light-dark(rgb(0, 0, 0), rgb(255, 255, 255));"/></g></g><g data-cell-id="nG4IH-adCrYojkNgLSkZ-18"><g transform="translate(0.5,0.5)"><path d="M 627.49 163.47 L 626.06 163.75 L 624.81 164.06 L 623.55 164.47 L 622.54 164.99 L 621.54 165.59 L 620.59 166.3 L 619.73 167.05 L 618.86 167.8 L 618.1 168.92 L 618.82 171.03 L 619.72 172.79 L 620.94 174.7 L 622.27 176.35 L 623.65 177.59 L 624.96 178.35 L 626.07 178.6 L 627.46 178.19 L 628.14 177.23 L 628.38 175.67 L 628.41 173.82 L 628.38 172.22 L 628.35 170.84 L 628.05 169.83 L 627.29 168.75 L 625.31 164.97 L 625.21 164.65 L 625.22 164.31 L 625.34 163.99 L 625.56 163.73 L 625.84 163.55 L 626.17 163.47 L 626.51 163.5 L 626.82 163.63 L 627.07 163.86 L 627.23 164.16 L 627.3 164.49 L 627.25 164.83 L 627.1 165.13 L 626.86 165.37 L 626.55 165.51 L 626.21 165.56 L 625.88 165.49 L 625.59 165.32 L 625.36 165.07 L 625.23 164.76 L 625.21 164.42 L 625.29 164.09 L 625.48 163.81 L 625.74 163.6 L 626.06 163.48 L 626.4 163.48 L 626.72 163.58 L 626.99 163.78 L 627.19 164.05 L 627.19 164.05 L 628.54 166.92 L 629.47 168.35 L 630.23 170.02 L 630.3 171.52 L 630.25 172.98 L 630.18 174.8 L 630.1 175.87 L 629.92 177.08 L 629.52 178.13 L 628.87 178.99 L 628.01 179.59 L 626.96 179.9 L 625.73 179.88 L 624.32 179.42 L 622.85 178.5 L 621.3 177.17 L 619.81 175.46 L 618.42 173.53 L 617.25 171.66 L 616.51 169.89 L 616.45 168.27 L 617 167.22 L 617.76 166.47 L 618.62 165.77 L 619.59 164.94 L 620.69 164.15 L 621.8 163.51 L 623.05 162.91 L 624.42 162.47 L 625.74 162.16 L 627.17 161.86 L 627.37 161.84 L 627.57 161.88 L 627.75 161.96 L 627.91 162.07 L 628.03 162.23 L 628.12 162.41 L 628.15 162.6 L 628.15 162.8 L 628.09 162.99 L 627.99 163.16 L 627.85 163.31 L 627.68 163.41 L 627.49 163.47 L 627.49 163.47" fill="#000000" stroke="#000000" stroke-miterlimit="10" pointer-events="all" style="fill: light-dark(rgb(0, 0, 0), rgb(255, 255, 255)); stroke: light-dark(rgb(0, 0, 0), rgb(255, 255, 255));"/></g></g><g data-cell-id="nG4IH-adCrYojkNgLSkZ-19"><g transform="translate(0.5,0.5)"><path d="M 827 150 L 847 90 L 947 90 L 927 150 Z" fill="#ffffff" stroke="#000000" stroke-miterlimit="10" pointer-events="all" style="fill: var(--ge-adaptive-bg, #ffffff); stroke: light-dark(rgb(0, 0, 0), rgb(255, 255, 255));"/></g><g><g><switch><foreignObject style="overflow: visible; text-align: left;" pointer-events="none" width="100%" height="100%" requiredFeatures="http://www.w3.org/TR/SVG11/feature#Extensibility"><div xmlns="http://www.w3.org/1999/xhtml" style="display: flex; align-items: unsafe center; justify-content: unsafe center; width: 118px; height: 1px; padding-top: 120px; margin-left: 828px;"><div style="box-sizing: border-box; font-size: 0; text-align: center; color: #000000; "><div style="display: inline-block; font-size: 12px; font-family: Helvetica; color: light-dark(#000000, #ffffff); line-height: 1.2; pointer-events: all; white-space: normal; word-wrap: normal; "><div style="float:left;width:118px;height:56px;"><div data-shape-inside="1" contenteditable="false" style="float:left;width:59px;height:56px;shape-outside:polygon(31.07% 0.05%, 0.05% 99.95%, 0.05% 99.95%, 0.05% 0.05%);shape-margin:2px;pointer-events:none;"></div><div data-shape-inside="1" contenteditable="false" style="float:right;width:59px;height:56px;shape-outside:polygon(99.95% 0.05%, 99.95% 99.95%, 68.93% 99.95%, 99.95% 0.05%);shape-margin:2px;pointer-events:none;"></div><div data-shape-inside="1" contenteditable="false" style="height:21px;pointer-events:none;"></div>output health</div></div></div></div></foreignObject><text x="887" y="110" fill="#000000" font-family="Helvetica" font-size="12px" text-anchor="middle" style="fill: light-dark(rgb(0, 0, 0), rgb(255, 255, 255));"><tspan x="887" y="110"></tspan><tspan x="887" y="124"></tspan><tspan x="887" y="138">output health</tspan></text></switch></g></g></g><g data-cell-id="nG4IH-adCrYojkNgLSkZ-20"><g transform="translate(0.5,0.5)"><path d="M 777 40 L 815.34 75.66" fill="none" stroke="#000000" stroke-miterlimit="10" pointer-events="stroke" style="stroke: light-dark(rgb(0, 0, 0), rgb(255, 255, 255));"/><path d="M 819.18 79.24 L 811.67 77.03 L 815.34 75.66 L 816.44 71.91 Z" fill="#000000" stroke="#000000" stroke-miterlimit="10" pointer-events="all" style="fill: light-dark(rgb(0, 0, 0), rgb(255, 255, 255)); stroke: light-dark(rgb(0, 0, 0), rgb(255, 255, 255));"/></g></g><g data-cell-id="nG4IH-adCrYojkNgLSkZ-21"><g transform="translate(0.5,0.5)"><path d="M 780 211.84 L 825.5 166.34" fill="none" stroke="#000000" stroke-miterlimit="10" pointer-events="stroke" style="stroke: light-dark(rgb(0, 0, 0), rgb(255, 255, 255));"/><path d="M 829.21 162.63 L 826.73 170.06 L 825.5 166.34 L 821.78 165.11 Z" fill="#000000" stroke="#000000" stroke-miterlimit="10" pointer-events="all" style="fill: light-dark(rgb(0, 0, 0), rgb(255, 255, 255)); stroke: light-dark(rgb(0, 0, 0), rgb(255, 255, 255));"/></g></g><g data-cell-id="nG4IH-adCrYojkNgLSkZ-22"><g transform="translate(0.5,0.5)"><path d="M 947 125.51 L 973.65 123.35" fill="none" stroke="#000000" stroke-miterlimit="10" pointer-events="stroke" style="stroke: light-dark(rgb(0, 0, 0), rgb(255, 255, 255));"/><path d="M 978.89 122.93 L 972.19 126.98 L 973.65 123.35 L 971.63 120 Z" fill="#000000" stroke="#000000" stroke-miterlimit="10" pointer-events="all" style="fill: light-dark(rgb(0, 0, 0), rgb(255, 255, 255)); stroke: light-dark(rgb(0, 0, 0), rgb(255, 255, 255));"/></g></g><g data-cell-id="nG4IH-adCrYojkNgLSkZ-23"><g transform="translate(0.5,0.5)"><rect x="980" y="102.76" width="70" height="34.49" rx="5.17" ry="5.17" fill="#ffffff" stroke="#000000" pointer-events="all" style="fill: var(--ge-adaptive-bg, #ffffff); stroke: light-dark(rgb(0, 0, 0), rgb(255, 255, 255));"/></g><g><g><switch><foreignObject style="overflow: visible; text-align: left;" pointer-events="none" width="100%" height="100%" requiredFeatures="http://www.w3.org/TR/SVG11/feature#Extensibility"><div xmlns="http://www.w3.org/1999/xhtml" style="display: flex; align-items: unsafe center; justify-content: unsafe center; width: 68px; height: 1px; padding-top: 120px; margin-left: 981px;"><div style="box-sizing: border-box; font-size: 0; text-align: center; color: #000000; "><div style="display: inline-block; font-size: 12px; font-family: Helvetica; color: light-dark(#000000, #ffffff); line-height: 1.2; pointer-events: all; white-space: normal; word-wrap: normal; ">End</div></div></div></foreignObject><text x="1015" y="124" fill="#000000" font-family="Helvetica" font-size="12px" text-anchor="middle" style="fill: light-dark(rgb(0, 0, 0), rgb(255, 255, 255));">End</text></switch></g></g></g></g></g></g><switch><g requiredFeatures="http://www.w3.org/TR/SVG11/feature#Extensibility"/><a transform="translate(0,-5)" xlink:href="https://www.drawio.com/doc/faq/svg-export-text-problems" target="_blank"><text text-anchor="middle" font-size="10px" x="50%" y="100%">Text is not SVG - cannot display</text></a></switch></svg>